<svg width="1251" height="960" viewBox="0 0 1251 960" fill="none" xmlns="http://www.w3.org/2000/svg">
<path d="M179.845 145.025C325.125 -266.949 1335.29 24.327 1271.45 8.2298V960C1271.45 960 -270.934 1299.5 84.0658 960C439.065 620.5 34.5658 557 179.845 145.025Z" fill="#C4C4C4"/>
<path d="M1274.65 974.653C1274.67 974.651 1274.67 974.649 1271.45 960L1274.67 974.649L1286.45 972.057V960V12.2241C1287.67 8.1192 1288.01 3.7476 1286.89 0.644104C1285.41 -1.26337 1282.86 -3.48601 1282.03 -4.01649C1281.58 -4.27531 1280.84 -4.6577 1280.55 -4.79777C1280.01 -5.04424 1279.56 -5.21559 1279.36 -5.28693C1278.91 -5.45479 1278.47 -5.60194 1278.15 -5.70606C1277.45 -5.93153 1276.55 -6.20304 1275.52 -6.50426C1271.37 -7.71674 1263.55 -9.86427 1252.58 -12.693C1230.58 -18.3647 1195.57 -26.8636 1151.35 -36.2143C1062.95 -54.9057 937.419 -77.0653 805.165 -86.786C673.131 -96.4906 533.281 -93.8908 416.758 -62.3664C300.184 -30.8283 204.324 30.5054 165.699 140.037C128.529 245.442 126.348 329.252 138.73 400.977C148.118 455.357 166.038 502.997 182.354 546.376C187.293 559.506 192.085 572.246 196.449 584.664C215.464 638.771 227.029 688.042 213.772 743.904C200.447 800.055 161.435 865.253 73.6985 949.159C50.9192 970.944 34.809 990.864 25.523 1009.16C16.1782 1027.57 13.1024 1045.72 19.0193 1062.47C24.87 1079.03 38.3611 1090.91 54.9801 1099.42C71.6228 1107.94 92.9191 1113.91 117.342 1118.02C214.479 1134.35 376.074 1123.39 546.484 1102.2C717.553 1080.92 899.614 1049.03 1038.81 1022.48C1108.43 1009.2 1167.37 997.245 1208.92 988.611C1229.69 984.294 1246.12 980.806 1257.36 978.396C1262.98 977.191 1267.3 976.256 1270.22 975.621C1271.68 975.304 1272.79 975.061 1273.54 974.898L1274.38 974.713L1274.6 974.666L1274.65 974.653Z" stroke="white" stroke-opacity="0.01" stroke-width="30"/>
</svg>
