<svg width="18" height="19" viewBox="0 0 18 19" fill="none" xmlns="http://www.w3.org/2000/svg">
<path d="M8.99997 3.07164C8.67174 3.07329 8.34799 3.14799 8.05222 3.29032C7.75644 3.43265 7.49606 3.63903 7.28997 3.89449L1.87711 10.4516C1.56082 10.8464 1.36178 11.3221 1.30267 11.8244C1.24357 12.3268 1.32678 12.8357 1.54282 13.2931C1.71804 13.6906 2.00398 14.0292 2.36648 14.2686C2.72898 14.508 3.15273 14.638 3.58711 14.6431H14.4128C14.8472 14.638 15.271 14.508 15.6335 14.2686C15.996 14.0292 16.2819 13.6906 16.4571 13.2931C16.6732 12.8357 16.7564 12.3268 16.6973 11.8244C16.6382 11.3221 16.4391 10.8464 16.1228 10.4516L10.71 3.89449C10.5039 3.63903 10.2435 3.43265 9.94772 3.29032C9.65194 3.14799 9.3282 3.07329 8.99997 3.07164Z" fill="white"/>
</svg>
