<svg width="48" height="48" viewBox="0 0 48 48" fill="none" xmlns="http://www.w3.org/2000/svg">
<path d="M11.52 1.91992C8.16236 1.91992 5.76001 4.56576 5.76001 7.67992V40.7212H5.76376C5.76336 40.7476 5.76001 40.7734 5.76001 40.7999C5.76001 43.7045 8.13546 46.0799 11.04 46.0799H42.24V44.1599H11.04C9.17336 44.1599 7.68001 42.6666 7.68001 40.7999C7.68001 38.9333 9.17336 37.4399 11.04 37.4399H42.24V36.4799V35.5199V1.91992H11.52ZM17.28 6.72555C18.3408 6.72555 19.2 7.58296 19.2 8.63992C19.2 9.69688 18.3408 10.5543 17.28 10.5543C16.2192 10.5543 15.36 9.69688 15.36 8.63992C15.36 7.58296 16.2192 6.72555 17.28 6.72555ZM31.8394 7.70805C33.146 7.74207 34.2606 8.17738 35.1206 9.03742C36.2918 10.2077 37.3055 12.4593 35.4863 16.5374C34.9755 17.6808 34.2553 18.9033 33.3769 20.158C34.2562 21.4137 34.9774 22.6391 35.4881 23.7824C37.3073 27.8605 36.2927 30.1122 35.1225 31.2824C34.9468 31.4581 34.7512 31.6007 34.5544 31.7418C34.5544 31.7207 34.56 31.701 34.56 31.6799C34.56 30.9359 34.338 30.2453 33.9694 29.6568C35.0167 28.285 34.4464 26.1626 33.735 24.5662C33.3424 23.6868 32.8125 22.7494 32.1713 21.7837C31.2554 22.9347 30.218 24.0969 29.0775 25.2374C27.9101 26.4048 26.7565 27.4382 25.6275 28.3387C26.2966 28.7822 26.9479 29.173 27.5719 29.4955C27.208 30.0168 26.9856 30.635 26.9194 31.2993C25.9824 30.8356 25.006 30.2507 24.0019 29.5518C21.1248 31.5572 18.4778 32.6155 16.3313 32.6155C14.9508 32.6155 13.776 32.18 12.8794 31.2824C11.7082 30.1122 10.6946 27.8605 12.5138 23.7824C13.0245 22.6391 13.7447 21.4165 14.6231 20.1618C13.7457 18.9071 13.0245 17.6827 12.5138 16.5393C10.6946 12.4612 11.7091 10.2095 12.8794 9.0393C13.056 8.85978 13.2478 8.70513 13.4475 8.56305C13.4475 8.58897 13.44 8.61304 13.44 8.63992C13.44 9.38392 13.662 10.0746 14.0306 10.663C12.9833 12.0349 13.5536 14.1572 14.265 15.7537C14.6576 16.633 15.1875 17.5704 15.8288 18.5362C16.7446 17.3851 17.782 16.2229 18.9225 15.0824C20.0908 13.9141 21.2445 12.8864 22.3744 11.9849C21.7043 11.5404 21.0522 11.1469 20.4263 10.8243C20.7891 10.304 21.0116 9.68857 21.0788 9.02617C22.0148 9.48889 22.9902 10.073 23.9944 10.7699C26.95 8.70952 29.6618 7.65134 31.8394 7.70805ZM31.6181 9.60742C30.0265 9.60742 27.9375 10.4413 25.6181 11.983C26.749 12.8826 27.9063 13.9112 29.0775 15.0824C30.218 16.2229 31.2554 17.3851 32.1713 18.5362C32.8125 17.5714 33.3433 16.634 33.735 15.7537C34.4934 14.0535 35.1148 11.7447 33.765 10.3949C33.2332 9.86308 32.5013 9.60742 31.6181 9.60742ZM24.0019 13.1474C22.7932 14.0796 21.5424 15.1804 20.28 16.4418C19.0445 17.6773 17.9444 18.932 16.9988 20.1618C17.9453 21.3916 19.0445 22.6453 20.28 23.8818C21.5405 25.1423 22.7886 26.2422 23.9963 27.1724C25.2059 26.2393 26.4576 25.1442 27.72 23.8818C28.9555 22.6463 30.0557 21.3916 31.0013 20.1618C30.0547 18.932 28.9555 17.6783 27.72 16.4418C26.4586 15.1804 25.2096 14.0777 24.0019 13.1474ZM24 17.2799C25.5955 17.2799 26.8894 18.5692 26.8894 20.1599C26.8894 21.7506 25.5955 23.0399 24 23.0399C22.4045 23.0399 21.1106 21.7506 21.1106 20.1599C21.1106 18.5692 22.4045 17.2799 24 17.2799ZM15.8288 21.7837C15.1875 22.7485 14.6567 23.6859 14.265 24.5662C13.5066 26.2663 12.8852 28.5752 14.235 29.9249C15.7259 31.4168 18.7733 30.7367 22.38 28.3387C21.2491 27.4382 20.0927 26.4086 18.9225 25.2374C17.782 24.0969 16.7446 22.9347 15.8288 21.7837ZM30.72 29.7655C31.7808 29.7655 32.64 30.623 32.64 31.6799C32.64 32.7369 31.7808 33.5943 30.72 33.5943C29.6592 33.5943 28.8 32.7369 28.8 31.6799C28.8 30.623 29.6592 29.7655 30.72 29.7655Z" fill="#EC4176"/>
</svg>
