<svg width="48" height="48" viewBox="0 0 48 48" fill="none" xmlns="http://www.w3.org/2000/svg">
<path d="M33.6 5.76001C32.0137 5.76001 30.72 7.05376 30.72 8.64001V16.32C30.72 17.9063 32.0137 19.2 33.6 19.2H45.12C46.7062 19.2 48 17.9063 48 16.32V8.64001C48 7.05376 46.7062 5.76001 45.12 5.76001H33.6ZM28.8 13.44L19.2 20.64V23.04L28.8 15.84V13.44ZM2.88 17.28C1.29375 17.28 0 18.5738 0 20.16V27.84C0 29.4263 1.29375 30.72 2.88 30.72H14.4C15.9862 30.72 17.28 29.4263 17.28 27.84V20.16C17.28 18.5738 15.9862 17.28 14.4 17.28H2.88ZM19.2 24.96V27.36L28.8 34.56V32.16L19.2 24.96ZM33.6 28.8C32.0137 28.8 30.72 30.0938 30.72 31.68V39.36C30.72 40.9463 32.0137 42.24 33.6 42.24H45.12C46.7062 42.24 48 40.9463 48 39.36V31.68C48 30.0938 46.7062 28.8 45.12 28.8H33.6Z" fill="#EC4176"/>
</svg>
