<svg width="48" height="48" viewBox="0 0 48 48" fill="none" xmlns="http://www.w3.org/2000/svg">
<path d="M17.6 0V10.6667H27.0937H32.9062C33.0134 10.661 33.1207 10.677 33.2217 10.7137C33.3226 10.7504 33.4151 10.807 33.4937 10.8802L37.3333 14.8802V11.4135C37.34 11.3084 37.3675 11.2056 37.4141 11.1111C37.4606 11.0166 37.5254 10.9323 37.6047 10.8629C37.684 10.7935 37.7761 10.7404 37.876 10.7067C37.9758 10.6731 38.0813 10.6595 38.1864 10.6667H40.5333V0H17.6ZM7.46662 2.13333V14.9333H12.2135C12.6402 14.9333 12.8 15.04 12.8 15.4667V16.9062L15.8937 14.9333C16.0004 14.8267 16.267 14.9333 16.427 14.9333H25.6V12.2667H16.7468C16.6391 12.2678 16.5324 12.2456 16.4341 12.2016C16.3358 12.1576 16.2481 12.0929 16.1772 12.0119C16.1062 11.9308 16.0537 11.8354 16.0231 11.7321C15.9925 11.6288 15.9846 11.5202 16 11.4135V2.13333H7.46662ZM11.0395 22.0802C10.4687 22.0746 9.90237 22.1822 9.37335 22.3968C8.84433 22.6113 8.36308 22.9286 7.95743 23.3303C7.55178 23.732 7.22976 24.2101 7.01 24.737C6.79024 25.2639 6.67709 25.8291 6.67709 26.4C6.67709 26.9709 6.79024 27.5361 7.01 28.063C7.22976 28.5899 7.55178 29.068 7.95743 29.4697C8.36308 29.8714 8.84433 30.1887 9.37335 30.4032C9.90237 30.6178 10.4687 30.7254 11.0395 30.7198C12.1779 30.7086 13.2658 30.2486 14.0668 29.4397C14.8678 28.6308 15.3171 27.5384 15.3171 26.4C15.3171 25.2616 14.8678 24.1692 14.0668 23.3603C13.2658 22.5514 12.1779 22.0914 11.0395 22.0802ZM37.0135 22.0802C36.1591 22.0802 35.3238 22.3335 34.6134 22.8082C33.9029 23.2828 33.3492 23.9575 33.0222 24.7469C32.6952 25.5363 32.6096 26.4049 32.7763 27.243C32.943 28.081 33.3544 28.8507 33.9586 29.4549C34.5628 30.0591 35.3325 30.4705 36.1705 30.6372C37.0086 30.8039 37.8772 30.7183 38.6666 30.3913C39.456 30.0643 40.1306 29.5106 40.6053 28.8001C41.08 28.0897 41.3333 27.2544 41.3333 26.4C41.3332 25.2543 40.8781 24.1556 40.068 23.3455C39.2579 22.5354 38.1592 22.0803 37.0135 22.0802ZM24 25.0667C23.1455 25.0666 22.3103 25.32 21.5998 25.7946C20.8894 26.2693 20.3356 26.944 20.0086 27.7334C19.6816 28.5228 19.5961 29.3914 19.7627 30.2294C19.9294 31.0674 20.3409 31.8372 20.945 32.4414C21.5492 33.0455 22.319 33.457 23.157 33.6237C23.995 33.7904 24.8636 33.7048 25.653 33.3778C26.4424 33.0508 27.1171 32.4971 27.5918 31.7866C28.0665 31.0762 28.3198 30.2409 28.3197 29.3865C28.3197 28.2408 27.8646 27.1421 27.0544 26.332C26.2443 25.5219 25.1456 25.0667 24 25.0667ZM10.1333 35.2C8.28915 35.2416 6.53373 35.9999 5.23936 37.3141C3.94498 38.6283 3.21346 40.395 3.19995 42.2396V44.8H14.7729C15.0418 42.4946 16.1191 40.3591 17.8135 38.7729C17.2431 37.6968 16.3911 36.796 15.3484 36.1667C14.3057 35.5373 13.1116 35.2032 11.8937 35.2H10.1333ZM36.1062 35.2C34.8919 35.2201 33.7046 35.5612 32.6649 36.1888C31.6251 36.8163 30.77 37.7079 30.1864 38.7729C31.8808 40.3591 32.9581 42.4946 33.227 44.8H44.8V42.2396C44.7864 40.395 44.0549 38.6283 42.7605 37.3141C41.4662 35.9999 39.7108 35.2416 37.8666 35.2H36.1062ZM23.1468 38.4C19.5202 38.4 16.5333 41.8671 16.5333 45.7604V48H31.4666V45.7604C31.4666 41.8671 28.4797 38.4 24.8531 38.4H23.1468Z" fill="#EC4176"/>
</svg>
